<svg id="Layer_2" data-name="Layer 2" xmlns="http://www.w3.org/2000/svg" xmlns:xlink="http://www.w3.org/1999/xlink" viewBox="0 0 148.93 46.45"><defs><style>.cls-1{fill:#3261ac;}.cls-2{fill:none;}.cls-3{fill:#e9b320;}.cls-4{fill:#d0a32d;}.cls-5{fill:url(#linear-gradient);}.cls-6{fill:url(#linear-gradient-2);}.cls-7{fill:#209758;}</style><linearGradient id="linear-gradient" x1="15.59" y1="20.79" x2="45.65" y2="20.79" gradientUnits="userSpaceOnUse"><stop offset="0" stop-color="#5e9ed5"/><stop offset="0.08" stop-color="#4589be"/><stop offset="0.2" stop-color="#2770a2"/><stop offset="0.32" stop-color="#115e8e"/><stop offset="0.43" stop-color="#045482"/><stop offset="0.54" stop-color="#00507e"/><stop offset="0.61" stop-color="#0d5a8b"/><stop offset="1" stop-color="#4a89c8"/></linearGradient><linearGradient id="linear-gradient-2" x1="11.04" y1="35.87" x2="41.21" y2="35.87" xlink:href="#linear-gradient"/></defs><title>black-logo</title><path class="cls-1" d="M79.39,26.34h-1v6.31l-19.64-6.8v9.6a4.28,4.28,0,0,1-2.7,2.86,12.43,12.43,0,0,1-3.59.67H48V26.16H38.71v8.46l.54,1.64c.54,2.59,3.59,3.34,6,3.52h.08l6.52-.07h1a13.51,13.51,0,0,0,3-.4l.14,0,.12,0a5.72,5.72,0,0,0,1.85-1,3.73,3.73,0,0,0,1.1-1.55V39.6h1.24l-.12-6.37,19.22,6.83Z" transform="translate(-0.6 -1.32)"/><path class="cls-2" d="M6.47,41.38v0Z" transform="translate(-0.6 -1.32)"/><path class="cls-2" d="M6.58,41.87h0Z" transform="translate(-0.6 -1.32)"/><path class="cls-3" d="M11,39.57,16,33l-6.51,5.2L7.14,40v0h0a1.48,1.48,0,0,0-.28.28,1.53,1.53,0,0,0-.37.94h0a.86.86,0,0,0,0,.16,1.51,1.51,0,0,0,.1.49h0a1.44,1.44,0,0,0,1.3.82,1.42,1.42,0,0,0,1-.37h0L9,42.2H9l0,0,0,0,1.7-2.29h0l.2-.26Z" transform="translate(-0.6 -1.32)"/><path class="cls-3" d="M6.81,33.9l7.44-3.77L6.13,32l-2.93.62h0a2.45,2.45,0,0,0-.38.13,1.52,1.52,0,0,0-.73.7h0L2,33.6a1.67,1.67,0,0,0-.12.48v0h0a1.43,1.43,0,0,0,.82,1.3,1.4,1.4,0,0,0,1,.08h0l.18-.07h0l0,0,0,0,2.52-1.33h0l.29-.15Z" transform="translate(-0.6 -1.32)"/><path class="cls-3" d="M5.35,27.08l8.31-.67L5.43,25.08l-2.94-.54h0a2.33,2.33,0,0,0-.4,0,1.66,1.66,0,0,0-.94.37h0L1,25a1.22,1.22,0,0,0-.29.4v0h0a1.44,1.44,0,0,0,1.19,2h.3L5,27.11H5l.33,0Z" transform="translate(-0.6 -1.32)"/><path class="cls-3" d="M6.51,19.74l8,2.35L7.31,17.9,4.75,16.35h0a3.17,3.17,0,0,0-.36-.16,1.58,1.58,0,0,0-1,0h0l-.14.06a1.6,1.6,0,0,0-.42.28h0A1.42,1.42,0,0,0,2.48,18a1.36,1.36,0,0,0,.69.76h0l.17.07h0l.05,0,2.75.76h0l.31.08Z" transform="translate(-0.6 -1.32)"/><path class="cls-3" d="M10.37,13.06l6.39,5.37-4.92-6.74L10.12,9.24v0h0a1.68,1.68,0,0,0-.26-.3,1.6,1.6,0,0,0-.93-.4H8.76a1.77,1.77,0,0,0-.5.09h0a1.42,1.42,0,0,0-.55,2.23h0l.14.13h0l0,0,0,0,2.21,1.79h0l.25.21Z" transform="translate(-0.6 -1.32)"/><path class="cls-3" d="M16.75,7.43l3.55,7.38-2-7.92-.47-2.46v0h0a1.58,1.58,0,0,0-.1-.31,1.3,1.3,0,0,0-.57-.63h0l-.12-.06a1.5,1.5,0,0,0-.4-.11h0a1.19,1.19,0,0,0-1.1.66,1.24,1.24,0,0,0-.09.86h0l.06.15h0l0,0,0,0,1.07,2.13h0l.12.25Z" transform="translate(-0.6 -1.32)"/><path class="cls-3" d="M24.86,5.29l.55,8.61,1.13-8.51L27,2.93h0a1.67,1.67,0,0,0,0-.33,1.38,1.38,0,0,0-.29-.8h0l-.09-.1a1.65,1.65,0,0,0-.33-.25h0a1.23,1.23,0,0,0-1.27.2,1.21,1.21,0,0,0-.4.77h0a.43.43,0,0,0,0,.16h0v.09c0,.43.19,2.38.19,2.38h0l0,.27Z" transform="translate(-0.6 -1.32)"/><path class="cls-3" d="M33.37,4.48l-2.44,7,3.74-6.38,1.21-1.8h0A1.26,1.26,0,0,0,36,3.06a1.1,1.1,0,0,0,0-.73h0s0-.07,0-.11a1.15,1.15,0,0,0-.18-.31h0a1,1,0,0,0-1.08-.27,1.07,1.07,0,0,0-.57.47h0a.67.67,0,0,0-.06.12h0v0l0,0c-.11.35-.64,1.95-.64,1.95h0l-.07.22Z" transform="translate(-0.6 -1.32)"/><path class="cls-3" d="M39.36,5.62l-4,4.61,4.83-3.72,1.48-1h0a.86.86,0,0,0,.18-.16.86.86,0,0,0,.25-.54h0a.28.28,0,0,0,0-.09A.88.88,0,0,0,42,4.42h0a.85.85,0,0,0-1.33-.35h0a.3.3,0,0,0-.08.08h0v0l0,0L39.49,5.47h0l-.13.15Z" transform="translate(-0.6 -1.32)"/><path class="cls-3" d="M17.49,41.34l1.4-6.86-3,6.32-1.12,2.25v0h0a2,2,0,0,0-.11.32,1.32,1.32,0,0,0,.07.84h0l.06.12a1.37,1.37,0,0,0,.26.33h0a1.2,1.2,0,0,0,1.87-.5h0A.75.75,0,0,0,17,44h0V44l.44-2.35h0l0-.27Z" transform="translate(-0.6 -1.32)"/><path class="cls-4" d="M6.59,41.89h0Z" transform="translate(-0.6 -1.32)"/><path class="cls-4" d="M6.47,41.22Z" transform="translate(-0.6 -1.32)"/><path class="cls-5" d="M45.65,8.83S22,13.12,16.64,22.67c0,0-3.88,6.83,3.23,9.25,0,0,6.89,2.45,13.24-1,0,0-8.1-.36-10.4-2.57,0,0-3.78-2.36.78-6.77,0,0,2.27-2.45,12-7.46S45.65,8.83,45.65,8.83Z" transform="translate(-0.6 -1.32)"/><path class="cls-6" d="M11,47.77s23.65-4.16,29.09-13.68c0,0,3.91-6.81-3.18-9.26,0,0-6.87-2.49-13.24,1,0,0,8.1.41,10.38,2.63,0,0,3.77,2.37-.82,6.76,0,0-2.28,2.44-12,7.4S11,47.77,11,47.77Z" transform="translate(-0.6 -1.32)"/><polygon class="cls-1" points="95.64 23.48 73.7 23.48 73.7 24.32 79.91 24.32 79.91 38.6 89.22 38.6 89.22 24.32 95.64 24.32 95.64 23.48"/><polygon class="cls-1" points="98.99 38.24 98.99 28.98 106.37 28.98 106.37 28.61 98.99 28.61 98.99 25.35 107.28 25.35 107.28 24.99 98.99 24.99 95 24.99 90.35 24.99 90.35 38.6 96.24 38.6 98.99 38.6 108.52 38.6 108.52 38.24 98.99 38.24"/><polygon class="cls-1" points="139.25 24.97 139.25 32.87 128.29 32.87 128.29 24.97 127 24.97 127 38.51 128.29 38.51 128.29 33.84 139.25 33.84 139.25 38.51 148.93 38.51 148.93 24.97 139.25 24.97"/><path class="cls-1" d="M118.06,39.4h0a11,11,0,0,1-2.75-.16V27.39c5.38-.87,10,2.27,10.66,2.7v-1c-4.41-3.68-10.66-2.82-10.66-2.82s-4.6.1-7.78,2.48a6,6,0,0,0-2.3,4.21s-.52,2.59,2.45,4.71h0l0,0a15.93,15.93,0,0,0,8.72,2.68l0,0c5.75.22,8.6-1.85,9.52-2.69V36.36A11.45,11.45,0,0,1,118.06,39.4Z" transform="translate(-0.6 -1.32)"/><path class="cls-1" d="M126,30.14v-1l-.07-.05v1Z" transform="translate(-0.6 -1.32)"/><path class="cls-7" d="M41.2,45.29a2,2,0,0,1-.78,1.15,2.24,2.24,0,0,1-1.33.38,2.21,2.21,0,0,1-1.82-.7,2.62,2.62,0,0,1-.57-1.7,2.24,2.24,0,0,1,.67-1.73,2.46,2.46,0,0,1,1.73-.62,2.33,2.33,0,0,1,1.27.34,1.77,1.77,0,0,1,.74,1l-.66.14a1.44,1.44,0,0,0-.5-.72,1.48,1.48,0,0,0-.86-.24,1.58,1.58,0,0,0-1.26.5,1.93,1.93,0,0,0-.44,1.32,2,2,0,0,0,.46,1.43A1.57,1.57,0,0,0,39,46.3a1.4,1.4,0,0,0,1.5-1.17Z" transform="translate(-0.6 -1.32)"/><path class="cls-7" d="M44.35,42.07a2.42,2.42,0,0,1,1.75.66,2.52,2.52,0,0,1,0,3.44,2.69,2.69,0,0,1-3.53,0,2.24,2.24,0,0,1-.67-1.65,2.37,2.37,0,0,1,.68-1.78A2.46,2.46,0,0,1,44.35,42.07Zm0,4.23a1.7,1.7,0,0,0,1.26-.48,2.19,2.19,0,0,0,0-2.75,1.7,1.7,0,0,0-1.24-.48,1.74,1.74,0,0,0-1.26.48,1.9,1.9,0,0,0-.49,1.45,1.77,1.77,0,0,0,.48,1.29A1.69,1.69,0,0,0,44.34,46.3Z" transform="translate(-0.6 -1.32)"/><path class="cls-7" d="M52.59,46.75H52V42.9h0l-1.46,3.85h-.61L48.4,42.84h0v3.91h-.64v-4.6h1L50,45.4c.14.37.22.59.24.68h0c.06-.17.15-.42.27-.73l1.22-3.2h.9Z" transform="translate(-0.6 -1.32)"/><path class="cls-7" d="M58.61,46.75H58V42.9h0l-1.47,3.85h-.61l-1.46-3.91h0v3.91h-.64v-4.6h1L56,45.4c.13.37.21.59.23.68h0c.07-.17.16-.42.27-.73l1.22-3.2h.9Z" transform="translate(-0.6 -1.32)"/><path class="cls-7" d="M60.57,46.75h-.68v-4.6h.68Z" transform="translate(-0.6 -1.32)"/><path class="cls-7" d="M65.5,42.7H63.81v4h-.68v-4H61.46v-.55h4Z" transform="translate(-0.6 -1.32)"/><path class="cls-7" d="M70.12,46.75H66.31v-4.6H70v.55H67v1.4H69.8v.55H67V46.2h3.14Z" transform="translate(-0.6 -1.32)"/><path class="cls-7" d="M71.15,42.15h1.76a6.17,6.17,0,0,1,.8,0,1.85,1.85,0,0,1,.64.21,1.74,1.74,0,0,1,.53.45,2.39,2.39,0,0,1,.36.67,2.63,2.63,0,0,1,.13.9,2.52,2.52,0,0,1-.54,1.67,2.24,2.24,0,0,1-1.84.66H71.15Zm.68,4.05h1.09a3.7,3.7,0,0,0,.6,0,1.34,1.34,0,0,0,.53-.2,1.21,1.21,0,0,0,.45-.55,2.5,2.5,0,0,0,.17-1,3.24,3.24,0,0,0-.06-.64,1.53,1.53,0,0,0-.25-.55,1.39,1.39,0,0,0-.42-.36,1.5,1.5,0,0,0-.46-.14,4.89,4.89,0,0,0-.58,0H71.83Z" transform="translate(-0.6 -1.32)"/><path class="cls-7" d="M84,42.7H81.19v1.42h2.4v.54h-2.4v2.09h-.67v-4.6H84Z" transform="translate(-0.6 -1.32)"/><path class="cls-7" d="M87.16,42.07a2.43,2.43,0,0,1,1.76.66,2.28,2.28,0,0,1,.68,1.72,2.24,2.24,0,0,1-.69,1.72,2.68,2.68,0,0,1-3.52,0,2.24,2.24,0,0,1-.67-1.65,2.34,2.34,0,0,1,.68-1.78A2.45,2.45,0,0,1,87.16,42.07Zm0,4.23a1.7,1.7,0,0,0,1.25-.48,1.84,1.84,0,0,0,.49-1.37,1.86,1.86,0,0,0-.49-1.38,1.7,1.7,0,0,0-1.24-.48,1.74,1.74,0,0,0-1.26.48,1.9,1.9,0,0,0-.49,1.45,1.77,1.77,0,0,0,.48,1.29A1.67,1.67,0,0,0,87.16,46.3Z" transform="translate(-0.6 -1.32)"/><path class="cls-7" d="M95.08,46.75h-.85c-.51-.73-.82-1.17-1-1.34a2.62,2.62,0,0,0-.39-.42,1,1,0,0,0-.38-.23,2.05,2.05,0,0,0-.47,0h-.78v2h-.68v-4.6h2.26a5.56,5.56,0,0,1,.78.05,1.29,1.29,0,0,1,.55.23,1.15,1.15,0,0,1,.36.43,1.27,1.27,0,0,1,.13.55,1,1,0,0,1-.37.83,1.91,1.91,0,0,1-1.06.41h0a2.21,2.21,0,0,1,1,.83Zm-3.82-2.58h1.45a2.56,2.56,0,0,0,.69-.07.71.71,0,0,0,.41-.26.68.68,0,0,0,.15-.43.69.69,0,0,0-.25-.54,1.32,1.32,0,0,0-.84-.22H91.26Z" transform="translate(-0.6 -1.32)"/><path class="cls-7" d="M104.24,45.29a2,2,0,0,1-.77,1.15,2.27,2.27,0,0,1-1.34.38,2.21,2.21,0,0,1-1.82-.7,2.62,2.62,0,0,1-.57-1.7,2.24,2.24,0,0,1,.67-1.73,2.48,2.48,0,0,1,1.73-.62,2.39,2.39,0,0,1,1.28.34,1.81,1.81,0,0,1,.74,1l-.66.14a1.52,1.52,0,0,0-.51-.72,1.46,1.46,0,0,0-.86-.24,1.59,1.59,0,0,0-1.26.5,1.93,1.93,0,0,0-.43,1.32,2,2,0,0,0,.45,1.43,1.58,1.58,0,0,0,1.19.46,1.49,1.49,0,0,0,1-.29,1.51,1.51,0,0,0,.52-.88Z" transform="translate(-0.6 -1.32)"/><path class="cls-7" d="M107.39,42.07a2.41,2.41,0,0,1,1.75.66,2.52,2.52,0,0,1,0,3.44,2.69,2.69,0,0,1-3.53,0,2.28,2.28,0,0,1-.67-1.65,2.37,2.37,0,0,1,.68-1.78A2.48,2.48,0,0,1,107.39,42.07Zm0,4.23a1.7,1.7,0,0,0,1.26-.48,2.19,2.19,0,0,0,0-2.75,1.7,1.7,0,0,0-1.24-.48,1.74,1.74,0,0,0-1.26.48,1.94,1.94,0,0,0-.49,1.45,1.77,1.77,0,0,0,.48,1.29A1.7,1.7,0,0,0,107.38,46.3Z" transform="translate(-0.6 -1.32)"/><path class="cls-7" d="M115.63,46.75H115V42.9h0l-1.47,3.85h-.61l-1.46-3.91h0v3.91h-.64v-4.6h1L113,45.4c.13.37.21.59.23.68h0c.07-.17.16-.42.27-.73l1.22-3.2h.9Z" transform="translate(-0.6 -1.32)"/><path class="cls-7" d="M121.65,46.75H121V42.9h0l-1.47,3.85h-.61l-1.46-3.91h0v3.91h-.64v-4.6h1L119,45.4c.13.37.21.59.23.68h0c.06-.17.15-.42.27-.73l1.21-3.2h.9Z" transform="translate(-0.6 -1.32)"/><path class="cls-7" d="M123.61,46.75h-.68v-4.6h.68Z" transform="translate(-0.6 -1.32)"/><path class="cls-7" d="M128.54,42.7h-1.68v4h-.68v-4H124.5v-.55h4Z" transform="translate(-0.6 -1.32)"/><path class="cls-7" d="M134.18,46.75h-.64V42.9h0l-1.46,3.85h-.61L130,42.84h0v3.91h-.64v-4.6h1l1.2,3.25c.14.37.22.59.24.68h0c.06-.17.15-.42.27-.73l1.22-3.2h.9Z" transform="translate(-0.6 -1.32)"/><path class="cls-7" d="M139.18,46.75h-3.81v-4.6h3.69v.55h-3v1.4h2.82v.55h-2.82V46.2h3.13Z" transform="translate(-0.6 -1.32)"/><path class="cls-7" d="M144.22,46.75h-.69l-2.67-3.61h0v3.61h-.64v-4.6h.69l2.66,3.61h0V42.15h.64Z" transform="translate(-0.6 -1.32)"/><path class="cls-7" d="M149.07,42.7h-1.68v4h-.68v-4H145v-.55h4Z" transform="translate(-0.6 -1.32)"/></svg>